<svg xmlns="http://www.w3.org/2000/svg" width="128" height="128" viewBox="0 0 128 128" fill="none">
  <rect width="128" height="128" rx="24" fill="#1E293B"/>
  <path d="M64 32C46.3269 32 32 46.3269 32 64C32 81.6731 46.3269 96 64 96C81.6731 96 96 81.6731 96 64C96 46.3269 81.6731 32 64 32ZM64 88C50.7452 88 40 77.2548 40 64C40 50.7452 50.7452 40 64 40C77.2548 40 88 50.7452 88 64C88 77.2548 77.2548 88 64 88Z" fill="#22C55E"/>
  <path d="M64 44C52.9543 44 44 52.9543 44 64C44 75.0457 52.9543 84 64 84C75.0457 84 84 75.0457 84 64C84 52.9543 75.0457 44 64 44ZM64 76C57.3726 76 52 70.6274 52 64C52 57.3726 57.3726 52 64 52C70.6274 52 76 57.3726 76 64C76 70.6274 70.6274 76 64 76Z" fill="#22C55E"/>
  <path d="M64 56C59.5817 56 56 59.5817 56 64C56 68.4183 59.5817 72 64 72C68.4183 72 72 68.4183 72 64C72 59.5817 68.4183 56 64 56ZM64 68C61.7909 68 60 66.2091 60 64C60 61.7909 61.7909 60 64 60C66.2091 60 68 61.7909 68 64C68 66.2091 66.2091 68 64 68Z" fill="#22C55E"/>
  <path d="M64 62C62.8954 62 62 62.8954 62 64C62 65.1046 62.8954 66 64 66C65.1046 66 66 65.1046 66 64C66 62.8954 65.1046 62 64 62Z" fill="#22C55E"/>
</svg>
